<?xml version="1.0" encoding="UTF-8"?>
<svg width="44px" height="44px" viewBox="0 0 44 44" version="1.1" xmlns="http://www.w3.org/2000/svg" xmlns:xlink="http://www.w3.org/1999/xlink">
    
    <g id="首页" stroke="none" stroke-width="1" fill="none" fill-rule="evenodd">
        <g id="首页/网络诊断-诊断结束" transform="translate(-618.000000, -308.000000)" fill="#FF2929">
            <g id="提示与反馈-/-4-模态弹窗提示-/-4-设置" transform="translate(360.000000, 236.000000)">
                <g id="-mockplus-dup-|B761354F-46F3-4A03-92AF-CB4BC9370932|icon/error" transform="translate(258.000000, 72.000000)">
                    <g id="icon/error">
                        <g id="error">
                            <path d="M22,0 C29.8598428,0 37.1226373,4.19317617 41.0525589,11 C44.9824804,17.8068236 44.9824804,26.1931764 41.0525589,33 C37.1226373,39.8068238 29.8598428,44 22,44 C9.84973543,44 0,34.1502645 0,22 C0,9.8497355 9.84973543,0 22,0 Z M16.8826882,14.3258413 C16.1698833,13.6616425 15.0591021,13.6812409 14.3701715,14.3701715 C13.6812409,15.0591021 13.6616425,16.1698833 14.3258413,16.8826882 L19.4419471,22.001206 L14.3258413,27.1173118 C13.841842,27.5683073 13.6426107,28.2475238 13.8063059,28.8885044 C13.9700012,29.529485 14.470515,30.0299988 15.1114956,30.1936941 C15.7524762,30.3573893 16.4316927,30.158158 16.8826882,29.6741587 L22.001206,24.560465 L27.1173118,29.6741587 C27.5683073,30.158158 28.2475238,30.3573893 28.8885044,30.1936941 C29.529485,30.0299988 30.0299988,29.529485 30.1936941,28.8885044 C30.3573893,28.2475238 30.158158,27.5683073 29.6741587,27.1173118 L24.560465,22.001206 L29.6741587,16.8826882 C30.158158,16.4316927 30.3573893,15.7524762 30.1936941,15.1114956 C30.0299988,14.470515 29.529485,13.9700012 28.8885044,13.8063059 C28.2475238,13.6426107 27.5683073,13.841842 27.1173118,14.3258413 L22.001206,19.4419471 L16.8826882,14.3258413 Z" id="形状"></path>
                        </g>
                    </g>
                </g>
            </g>
        </g>
    </g>
</svg>