<?xml version="1.0" encoding="UTF-8"?>
<svg width="33px" height="32px" viewBox="0 0 33 32" version="1.1" xmlns="http://www.w3.org/2000/svg" xmlns:xlink="http://www.w3.org/1999/xlink">
    
    <g id="更多功能" stroke="none" stroke-width="1" fill="none" fill-rule="evenodd">
        <g id="更多功能/网络拓展-mesh管理-扩展mesh网络失败" transform="translate(-440.000000, -382.000000)">
            <g id="拓展mesh网络" transform="translate(280.000000, 132.000000)">
                <g id="导航-/-步骤条-/-3-有序步骤条-/-2-组合" transform="translate(96.500000, 250.000000)">
                    <g id="导航-/-步骤条-/-3-有序步骤条-/-1-横向-/-2-组合">
                        <g id="step1">
                            <g id="步骤条">
                                <g id="-mockplus-" transform="translate(64.000000, 0.000000)">
                                    <g id="icon/success">
                                        <g id="error">
                                            <g id="Common/Feedback/SM/Error">
                                                <g id="Checkbox">
                                                    <circle id="Oval" fill="#FF2929" cx="16" cy="16" r="16"></circle>
                                                    <path d="M16,13.8786797 L20.9393398,8.93933983 C21.5251263,8.35355339 22.4748737,8.35355339 23.0606602,8.93933983 C23.6464466,9.52512627 23.6464466,10.4748737 23.0606602,11.0606602 L18.1213203,16 L23.0606602,20.9393398 C23.6464466,21.5251263 23.6464466,22.4748737 23.0606602,23.0606602 C22.4748737,23.6464466 21.5251263,23.6464466 20.9393398,23.0606602 L16,18.1213203 L11.0606602,23.0606602 C10.4748737,23.6464466 9.52512627,23.6464466 8.93933983,23.0606602 C8.35355339,22.4748737 8.35355339,21.5251263 8.93933983,20.9393398 L13.8786797,16 L8.93933983,11.0606602 C8.35355339,10.4748737 8.35355339,9.52512627 8.93933983,8.93933983 C9.52512627,8.35355339 10.4748737,8.35355339 11.0606602,8.93933983 L16,13.8786797 L16,13.8786797 Z" id="Path" fill="#FFFFFF" fill-rule="nonzero"></path>
                                                </g>
                                            </g>
                                        </g>
                                    </g>
                                </g>
                            </g>
                        </g>
                    </g>
                </g>
            </g>
        </g>
    </g>
</svg>