<?xml version="1.0" encoding="UTF-8"?>
<svg width="16px" height="16px" viewBox="0 0 16 16" version="1.1" xmlns="http://www.w3.org/2000/svg" xmlns:xlink="http://www.w3.org/1999/xlink">
    
    <g id="首页" stroke="none" stroke-width="1" fill="none" fill-rule="evenodd">
        <g id="首页/互联网未连接" transform="translate(-397.000000, -325.000000)" fill="#FF2929">
            <g id="connect-line1" transform="translate(348.000000, 325.000000)">
                <g id="-mockplus-dup-|94E1857B-5F5B-46D0-9C1F-82C199FFD947|icon/error" transform="translate(49.000000, 0.000000)">
                    <g id="icon/error">
                        <g id="error">
                            <path d="M8,0 C10.8581247,0 13.4991408,1.52479133 14.9282032,4 C16.3572656,6.4752086 16.3572656,9.5247914 14.9282032,12 C13.4991408,14.4752087 10.8581247,16 8,16 C3.58172197,16 0,12.418278 0,8 C0,3.581722 3.58172197,0 8,0 Z M6.13915933,5.20939684 C5.87995757,4.96787002 5.47603712,4.97499668 5.2255169,5.2255169 C4.97499668,5.47603712 4.96787002,5.87995757 5.20939684,6.13915933 L7.06979895,8.00043856 L5.20939684,9.86084067 C5.03339709,10.024839 4.96094934,10.2718268 5.02047488,10.5049107 C5.08000042,10.7379945 5.26200546,10.9199996 5.49508931,10.9795251 C5.72817315,11.0390507 5.97516099,10.9666029 6.13915933,10.7906032 L8.00043856,8.93107819 L9.86084067,10.7906032 C10.024839,10.9666029 10.2718268,11.0390507 10.5049107,10.9795251 C10.7379945,10.9199996 10.9199996,10.7379945 10.9795251,10.5049107 C11.0390507,10.2718268 10.9666029,10.024839 10.7906032,9.86084067 L8.93107819,8.00043856 L10.7906032,6.13915933 C10.9666029,5.97516099 11.0390507,5.72817315 10.9795251,5.49508931 C10.9199996,5.26200546 10.7379945,5.08000042 10.5049107,5.02047488 C10.2718268,4.96094934 10.024839,5.03339709 9.86084067,5.20939684 L8.00043856,7.06979895 L6.13915933,5.20939684 Z" id="形状"></path>
                        </g>
                    </g>
                </g>
            </g>
        </g>
    </g>
</svg>