<?xml version="1.0" encoding="UTF-8"?>
<svg width="40px" height="40px" viewBox="0 0 40 40" version="1.1" xmlns="http://www.w3.org/2000/svg" xmlns:xlink="http://www.w3.org/1999/xlink">
    <!-- Generator: Sketch 60 (88103) - https://sketch.com -->
    <desc>Created with Sketch.</desc>
    <g id="图标控件按钮" stroke="none" stroke-width="1" fill="none" fill-rule="evenodd">
        <g transform="translate(-1187.000000, -10.000000)" id="-mockplus-">
            <g transform="translate(1187.000000, 10.000000)">
                <g id="Common/Feedback/LG/Warning" transform="translate(0.000000, 2.000000)">
                    <path d="M18.5963061,0.790445997 L0.28442237,31.8715833 C-0.306313319,32.8742511 0.0528511022,34.1515442 1.08663856,34.7244973 C1.41238876,34.9050369 1.78107699,35 2.15626014,35 L37.8441088,35 C39.0347746,35 40,34.0638303 40,32.9090065 C40,32.5451173 39.9020895,32.1875276 39.7159465,31.8715833 L21.4040628,0.790445997 C20.961011,0.038445113 19.9733089,-0.222819387 19.1979683,0.206895404 C18.9472953,0.345825141 18.7395478,0.547318957 18.5963061,0.790445997 Z" id="Triangle" fill="#F79500"></path>
                    <path d="M20,27 C21.1045695,27 22,27.8954305 22,29 C22,30.1045695 21.1045695,31 20,31 C18.8954305,31 18,30.1045695 18,29 C18,27.8954305 18.8954305,27 20,27 Z M20,10 C21.0333834,10 21.8711062,10.8377228 21.8711062,11.8711062 C21.8711062,11.9126287 21.869724,11.9541397 21.866962,11.9955703 L21.066519,24.0022148 C21.0290868,24.5636986 20.5627301,25 20,25 C19.4372699,25 18.9709132,24.5636986 18.933481,24.0022148 L18.133038,11.9955703 C18.0642984,10.9644757 18.8444412,10.0728838 19.8755359,10.0041442 C19.9169664,10.0013822 19.9584775,10 20,10 Z" id="Shape" fill="#FFFFFF"></path>
                </g>
            </g>
        </g>
    </g>
</svg>