<?xml version="1.0" encoding="UTF-8"?>
<svg width="44px" height="44px" viewBox="0 0 44 44" version="1.1" xmlns="http://www.w3.org/2000/svg" xmlns:xlink="http://www.w3.org/1999/xlink">
    <!-- Generator: Sketch 60 (88103) - https://sketch.com -->
    <desc>Created with Sketch.</desc>
    <g id="首页" stroke="none" stroke-width="1" fill="none" fill-rule="evenodd">
        <g id="首页/重启中" transform="translate(-618.000000, -271.000000)" fill="#F79500">
            <g id="重启路由" transform="translate(440.000000, 229.000000)">
                <g id="Feedback/messagebox">
                    <g id="-mockplus-" transform="translate(178.000000, 42.000000)">
                        <g id="常用/时间/f">
                            <path d="M22,0 C34.1502645,0 44,9.8497355 44,22 C44,34.1502645 34.1502645,44 22,44 C9.8497355,44 0,34.1502645 0,22 C0,9.8497355 9.8497355,0 22,0 Z M22,7.5625 C20.8609127,7.5625 19.9375,8.4859127 19.9375,9.625 L19.9375,9.625 L19.9375,22 C19.9375,23.1390873 20.8609127,24.0625 22,24.0625 C22.085723,24.0625 22.1702245,24.0572703 22.253203,24.0471125 C22.3274842,24.0572315 22.4038134,24.0625 22.48125,24.0625 L22.48125,24.0625 L31.14375,24.0625 C32.1689286,24.0625 33,23.1390873 33,22 C33,20.8609127 32.1689286,19.9375 31.14375,19.9375 L31.14375,19.9375 L24.062,19.937 L24.0625,9.625 C24.0625,8.5376894 23.221126,7.64689222 22.1539268,7.56815717 Z" id="形状结合"></path>
                        </g>
                    </g>
                </g>
            </g>
        </g>
    </g>
</svg>